PathFileType	4	(X/Y/Z)	RBDS017\RBDS017runT25.trc
DataRate	CameraRate	NumFrames	NumMarkers	Units	OrigDataRate	OrigDataStartFrame	OrigNumFrames
150.000000	150.000000	6	33	mm	150.000000	0	4500
Frame#	Time	L.ASIS			L.Heel.Bottom			L.Heel.Lateral			L.Heel.Top			L.Iliac.Crest			L.MT1			L.MT5			L.PSIS			L.Shank.Bottom.Lateral			L.Shank.Bottom.Medial			L.Shank.Top.Lateral			L.Shank.Top.Medial			L.Thigh.Bottom.Lateral			L.Thigh.Bottom.Medial			L.Thigh.Top.Lateral			L.Thigh.Top.Medial			R.ASIS			R.ASY			R.Heel.Bottom			R.Heel.Lateral			R.Heel.Top			R.Iliac.Crest			R.MT1			R.MT5			R.PSIS			R.Shank.Bottom.Lateral			R.Shank.Bottom.Medial			R.Shank.Top.Lateral			R.Shank.Top.Medial			R.Thigh.Bottom.Lateral			R.Thigh.Bottom.Medial			R.Thigh.Top.Lateral			R.Thigh.Top.Medial			
		X1	Y1	Z1	X2	Y2	Z2	X3	Y3	Z3	X4	Y4	Z4	X5	Y5	Z5	X6	Y6	Z6	X7	Y7	Z7	X8	Y8	Z8	X9	Y9	Z9	X10	Y10	Z10	X11	Y11	Z11	X12	Y12	Z12	X13	Y13	Z13	X14	Y14	Z14	X15	Y15	Z15	X16	Y16	Z16	X17	Y17	Z17	X18	Y18	Z18	X19	Y19	Z19	X20	Y20	Z20	X21	Y21	Z21	X22	Y22	Z22	X23	Y23	Z23	X24	Y24	Z24	X25	Y25	Z25	X26	Y26	Z26	X27	Y27	Z27	X28	Y28	Z28	X29	Y29	Z29	X30	Y30	Z30	X31	Y31	Z31	X32	Y32	Z32	X33	Y33	Z33	

1	0	2143.986698197104	983.8651065859365	872.310666826541	1638.210773993919	537.0161710750806	904.3865155508896	1653.411761572648	520.1188426196267	864.2562095983287	1683.481348552133	530.3886578872807	901.9131905714667	2083.807708662523	1076.019296245716	839.3846768563271	1663.836016713255	309.2696793122241	915.0561006926566	1637.914955492395	356.3049643369238	813.8068828388342	1969.142433663484	1060.2014722994	962.6906671114263	1799.600844541989	478.9644315226285	835.3849003687168	1797.236890953701	517.8268925256583	874.437712368096	1877.557781978862	494.5693564270217	824.7325401032715	1876.262580187755	532.5906687220047	862.5678015877564	2129.95100134745	616.5938576008009	805.6808188313712	2074.303895891814	595.1783156110662	846.2199465284638	2092.863931766546	719.345736225038	810.4348055479602	2040.484535699152	700.7081816002516	850.3712834380641	2131.188292511393	994.781395765196	1163.065193035163	2124.780796008197	75.88238082330869	1071.760304064366	1927.193321502297	34.18971226003724	1033.864579186613	1946.624875719464	55.43438010110608	1076.532864247639	1940.043602817037	80.29911827014864	1035.180975285777	2063.254249093028	1066.451621024091	1200.043209944747	2155.171437984091	49.01347392983477	1030.343856795281	2102.092615502997	37.89957297494988	1137.45800721329	1964.50181903757	1059.308106703329	1058.965233899311	2038.392509283198	181.4260758754058	1101.7739790556	2003.680709710043	202.3022956660377	1070.37192099559	2067.206954022495	259.0765956234349	1120.541497175889	2027.228032567851	277.6350564235591	1089.067454794469	2151.741374804964	615.7274407186088	1159.112712346543	2095.139835659772	594.794922160398	1118.17522257992	2102.113655948309	711.9134761029171	1175.953334061294	2047.402428674671	692.0546733870434	1138.240626551035	
2	0.006666666666666667	2142.492693803746	984.7094073075045	871.8108928676878	1647.418038672166	530.3232593879172	904.0683693313135	1663.252257685282	513.5811272420971	864.0139075065323	1692.946514314101	524.4696699089482	901.6843433279831	2079.494724383473	1077.168070069516	838.7298322361958	1678.098686282354	303.0407493922444	915.8021064987146	1651.607613163742	349.1414235076576	814.2469311792527	1968.078955456005	1060.634032449614	962.6044782939084	1810.582954084108	475.0881979720544	835.592367702989	1807.42666724267	514.2428366499361	874.3569189736518	1888.279551461884	492.1898468016265	825.0198510397663	1886.218107323613	530.5247194126314	862.468232936372	2138.106341393117	619.2569706690006	806.000418798851	2082.424858015063	596.249229739414	845.7656848203452	2097.799842415355	720.9381902290138	810.6794453554659	2045.638565324921	700.600998215706	849.973062218925	2129.962918715035	994.531593746713	1162.969021589028	2108.29650604175	75.77901499660553	1072.641180314906	1910.581997006053	34.47775822738321	1034.403438950975	1930.034544670822	55.46073380702794	1077.187905188115	1923.427607196726	80.5980158945701	1036.021280715096	2062.765743224362	1066.854859413076	1200.266760267805	2138.554064931944	49.10450708204693	1030.969553326277	2085.478272602688	37.41193957687461	1138.033977670671	1963.570927464017	1059.91553995308	1058.897174592651	2023.42544980763	181.5077617365421	1102.708315924441	1988.994576669015	203.0214019219556	1071.362745582427	2053.264767402592	258.7224172814894	1121.722642408315	2013.768534321997	277.8925473884531	1090.11771923975	2144.261530170589	614.2173191055766	1160.623433791741	2087.0425077241	593.9728814121454	1120.120813254361	2096.141432091546	711.3405631101677	1176.971791128333	2041.140368175465	692.1448720778394	1139.405422594324	
3	0.01333333333333333	2141.085471585408	985.7298716429298	871.3577378784181	1656.628943353259	523.1922347661707	903.790263004302	1673.105525742377	506.6436008231572	863.8130304067669	1702.391930684575	518.187882078292	901.4927325702696	2075.424453008532	1078.518223316059	838.1200637275119	1692.649783353501	296.552646669124	916.576011385001	1665.534876224816	341.6665334164857	814.7234181533195	1967.080288592103	1061.264475041004	962.4855047614913	1821.552297069607	471.0162244928032	835.8403103763401	1817.555584297231	510.4434498586635	874.3117162798217	1898.941595591228	489.6946167383596	825.3418760134816	1896.057106621917	528.3281254609285	862.4003240098989	2146.174472939348	622.1388181803763	806.3390572671817	2090.467231201126	597.5551459878042	845.3188674885635	2102.711727487455	722.7373810069416	810.9078634719432	2050.755759065813	700.7289311887495	849.5442031858347	2128.761675515171	994.4343292221522	1162.899171978253	2091.788851427154	75.68984715100076	1073.534254120207	1893.95750310793	34.91627500719186	1034.940101305426	1913.438811398753	55.61355535140523	1077.847868229422	1906.818779918158	81.03724286726408	1036.876919285709	2062.338156751421	1067.381182110834	1200.442804687657	2121.900894540104	49.20271715849334	1031.595512826013	2068.824330603933	36.93878995488119	1138.599114996513	1962.693982288049	1060.697763932094	1058.801590640539	2008.375936543968	181.7065964855947	1103.663538664644	1974.225254436399	203.8241163317946	1072.354455121768	2039.200269276142	258.5012682884428	1122.904005133581	2000.1820068535	278.2526870816217	1091.161948263168	2136.580968053296	612.8960401481634	1162.091463637714	2078.772347554492	593.3945849486257	1121.969787097323	2090.030394879585	710.9646012622833	1177.942132160438	2034.757564881067	692.4866971312106	1140.473438301056	
4	0.02	2139.843545686487	987.0846389377408	870.9917183555976	1665.824084833717	515.2380339737595	903.5868108753201	1682.962444474173	498.9542576863091	863.6906029840098	1711.783331391734	511.2272235223987	901.3715693173459	2071.826991643879	1080.247203619582	837.593467660568	1707.732019616073	289.565599909905	917.4082312587916	1679.889927951944	333.5962248776804	815.2720283137555	1966.204050009114	1062.274118565554	962.3034328080473	1832.492704880674	466.5794906193306	836.1667478095906	1827.557055240023	506.2441339266762	874.3340178758108	1909.487591869194	486.9898207576422	825.7310334515121	1905.668975729023	525.8938525940512	862.3930225569145	2154.082508777238	625.4452591575464	806.7098698211283	2098.367903370855	599.315776141192	844.8839300533023	2107.581441501615	724.9370123948827	811.1015120654101	2055.808333625546	701.309465974098	849.0522710946942	2127.606933391191	994.6353320630684	1162.875608721614	2075.234504275276	75.62508167916572	1074.446351593973	1877.296804213929	35.64240295950358	1035.470305063432	1896.823998126057	56.00793868344487	1078.514461593668	1890.21387671127	81.74528206643387	1037.75891511348	2062.029954594522	1068.148826158118	1200.530039122477	2105.168090471862	49.30834669682486	1032.217837364918	2052.08735509042	36.4888628198179	1139.140876535648	1961.919187452756	1061.81617982481	1058.655941996537	1993.159361953012	182.134759311803	1104.65310165857	1959.290928151821	204.79175784359	1073.341615784229	2024.892522762281	258.5389369923331	1124.08348338894	1986.342285411047	278.814274687873	1092.192461165739	2128.508292390402	611.9415193459215	1163.473588414082	2070.16798150198	593.2879758646851	1123.626234079825	2083.647786279907	710.9710434606251	1178.815350123831	2028.142335724285	693.3153323166987	1141.3489241979	
5	0.02666666666666667	2138.829163835779	988.8961390878101	870.7415565982086	1674.990298977656	506.1601513457068	903.4876996526202	1692.814736050653	490.2391632051872	863.6777083010817	1721.093068776113	503.3417345620006	901.3494341056389	2068.893564281352	1082.491521523322	837.1772462891131	1723.52858409831	281.9011946007238	918.3232700679763	1694.818729429165	324.7165676524663	815.9214038325184	1965.497637403021	1063.80546782217	962.0369072080156	1843.385238868579	461.6484840963985	836.6018160595705	1837.37270885821	501.4992927175866	874.4512866152463	1919.865018300027	484.0029804397171	826.2131714775775	1914.959356836774	523.135294284308	862.4722712004843	2161.759984347194	629.3323072023649	807.1222129369568	2106.063806436458	601.7023512249822	844.4665846732546	2112.38688396321	727.6877658048373	811.2459885948912	2060.767082029046	702.5151314699864	848.473791386465	2126.521183178103	995.2516521712838	1162.909997688135	2058.633294560435	75.59320172820426	1075.380213656581	1860.597744096307	36.77694177591815	1035.989847834998	1880.195873715041	56.74664065287599	1079.18781849326	1873.628948830061	82.8350512435962	1038.674253014649	2061.89366412358	1069.260992951208	1200.49692755168	2088.334009819187	49.42018789732422	1032.830839867451	2035.245674520083	36.07139689860012	1139.646506758226	1961.287324726501	1063.399686347288	1058.447939893393	1977.727196766422	182.8896544885801	1105.683096986136	1944.145434996727	205.9975275494773	1074.315418456827	2010.26366251942	258.9446433209527	1125.255794221125	1972.164614432823	279.6654813501461	1093.19996964927	2119.90231630245	611.50414294701	1164.729925667354	2061.115797894399	593.8405113182662	1125.007867742831	2076.899588369522	711.5136429419414	1179.547267627765	2021.21856242078	694.8215270061351	1141.952423689526	
6	0.03333333333333333	2138.084894391736	991.2453882203326	870.6219755685073	1684.13296045808	495.7563068797763	903.5173586035725	1702.665940218787	480.3147428260847	863.7987880664607	1730.311734850012	494.3654040518649	901.4497746349516	2066.763372272546	1085.338052688342	836.8839813158828	1740.159957265897	273.4545247790793	919.3377007425493	1710.41966237572	314.897389565932	816.6912859112947	1964.995866262371	1065.953709990444	961.6760372359881	1854.215201980705	456.138384629833	837.1660854478092	1846.961964127017	496.1064822528614	874.6858848730648	1930.031473822828	480.6846001413121	826.8062904168	1923.859586542131	519.9865153520157	862.6606027387805	2169.140726980654	633.8940766076515	807.5808848854444	2113.492593377461	604.8256483115171	844.0738348636675	2117.101518932086	731.0871748178732	811.332320122745	2065.601379300268	704.4626417531153	847.7968359577554	2125.527802395512	996.3660845879421	1163.003027612358	2042.007843988207	75.60062456182328	1076.334021808266	1843.879405962583	38.42411589870036	1036.495948153192	1863.579812533136	57.91994707822451	1079.867349421614	1857.100047442551	84.40303477675896	1039.626139802773	2061.975927445145	1070.803855876993	1200.32444893926	2071.398131032074	49.53586762332082	1033.426854714769	2018.298253819472	35.69702659967431	1140.104011017767	1960.830477088628	1065.537433626223	1058.177992919693	1962.072052292782	184.0525280445554	1106.751763263068	1928.783862322571	207.5066891773884	1075.263685771855	1995.286097209254	259.8090693972728	1126.412367952659	1957.613327644279	280.8832070441452	1094.173363757093	2110.683751357574	611.701208721438	1165.825652840798	2051.560867821228	595.1903976534202	1126.050753276045	2069.739515548651	712.7076855949829	1180.100745500383	2013.95467186948	697.1414987413484	1142.225569323551	
